C:\GBW_MyPrograms\KinderuniversiteitApp\Resultaten\Ellis_v10102025\Kleuter\Kleuter_v4.mot
version=1
nRows=8
nColumns=29
inDegrees=yes
endheader
                time	         pelvis_tilt	           pelvis_tx	           pelvis_ty	       hip_flexion_l	       hip_flexion_r	        knee_angle_l	        knee_angle_r	       ankle_angle_l	       ankle_angle_r	    lumbar_extension	hamstrings_r/activation	bifemsh_r/activation	glut_max_r/activation	iliopsoas_r/activation	rect_fem_r/activation	  vasti_r/activation	gastroc_r/activation	 soleus_r/activation	tib_ant_r/activation	hamstrings_l/activation	bifemsh_l/activation	glut_max_l/activation	iliopsoas_l/activation	rect_fem_l/activation	  vasti_l/activation	gastroc_l/activation	 soleus_l/activation	tib_ant_l/activation	
          1.32972503	          1.77945665	          0.69919309	          0.47560008	         20.34535837	        -16.01098101	        -25.09748388	         -8.93165291	         -8.36293751	        -19.51832679	        -10.40478397	          0.05000146	          0.05001588	          0.05000271	          0.27140718	          0.15056493	          0.08495865	          0.30330550	          0.26235761	          0.05000036	          0.08006535	          0.05352786	          0.05000300	          0.08943858	          0.05704856	          0.05000062	          0.05427403	          0.05000361	          0.09122611	
          1.33858986	          1.77846855	          0.70494532	          0.47474601	         19.98572615	        -16.30741601	        -24.52187358	         -9.63502517	         -8.74887667	        -20.03917373	        -10.33238987	          0.05000085	          0.05006207	          0.05000063	          0.27580922	          0.13118444	          0.08666150	          0.28623295	          0.29099820	          0.05000028	          0.08945378	          0.05411920	          0.05000043	          0.07822174	          0.06069448	          0.05000044	          0.05169333	          0.05000120	          0.08560662	
          1.34745470	          1.78021896	          0.71089799	          0.47387673	         19.50360484	        -16.51481679	        -24.24234654	        -10.53760552	         -9.08207139	        -20.61411322	        -10.23579879	          0.05000195	          0.05000780	          0.05000069	          0.24671352	          0.11429779	          0.07833053	          0.26563152	          0.32301633	          0.05000018	          0.08575253	          0.05000172	          0.05000121	          0.06815272	          0.05738965	          0.05738759	          0.05000335	          0.05000307	          0.07565664	
          1.35631953	          1.78527072	          0.71704801	          0.47299212	         18.88775101	        -16.62647087	        -24.28801687	        -11.65308761	         -9.29947920	        -21.24191795	        -10.11206552	          0.05000177	          0.05000792	          0.06878007	          0.22403850	          0.09958500	          0.07345782	          0.23143791	          0.32650336	          0.05000011	          0.09601163	          0.11245736	          0.05000072	          0.05937986	          0.05000253	          0.05000030	          0.09719905	          0.12184978	          0.06591760	
          1.36518436	          1.79269405	          0.72332714	          0.47212821	         18.20423257	        -16.64791334	        -24.44818946	        -12.95620725	         -9.37752996	        -21.90440155	         -9.97075148	          0.05000119	          0.05000873	          0.05992637	          0.19520013	          0.08676605	          0.07511997	          0.20164546	          0.28447350	          0.05000006	          0.09179888	          0.09798166	          0.07834842	          0.05173627	          0.05000096	          0.06068683	          0.11495567	          0.16410843	          0.05743224	
          1.37404920	          1.80105594	          0.72964608	          0.47135765	         17.51196039	        -16.58490863	        -24.63268916	        -14.41274941	         -9.29531288	        -22.59719000	         -9.82395459	          0.05000235	          0.05000673	          0.06725671	          0.17402974	          0.07559717	          0.06545115	          0.17568810	          0.24785387	          0.05000023	          0.09148466	          0.08536936	          0.10169660	          0.05000059	          0.05000113	          0.08746166	          0.13031367	          0.19118484	          0.05003931	
          1.38291403	          1.80912945	          0.73592723	          0.47073900	         16.82015307	        -16.43152742	        -24.82324192	        -16.01226930	         -9.11433040	        -23.31267811	         -9.68043840	          0.05000292	          0.05000582	          0.07853293	          0.16493722	          0.06586610	          0.05702849	          0.15307218	          0.21594821	          0.06555895	          0.09877856	          0.07438072	          0.12445040	          0.05000059	          0.05000093	          0.10888381	          0.14399583	          0.22135209	          0.05000035	
          1.39177886	          1.81596664	          0.74210368	          0.47029047	         16.12876499	        -16.18893075	        -24.99803795	        -17.74670042	         -8.89415327	        -23.94932508	         -9.54714795	          0.05000156	          0.05000251	          0.07233752	          0.16685263	          0.05738782	          0.05157999	          0.13336761	          0.18814971	          0.08896180	          0.10490200	          0.06480696	          0.16089402	          0.05000041	          0.05000068	          0.12160191	          0.15232722	          0.24358787	          0.05000059	
